<mxfile host="app.diagrams.net" modified="2024-04-23T23:51:30.146Z" agent="Mozilla/5.0 (Windows NT 10.0; Win64; x64) AppleWebKit/537.36 (KHTML, like Gecko) Chrome/124.0.0.0 Safari/537.36" etag="pLUnJAf4tn07W6YfhPfo" version="24.2.8" type="device">
  <diagram id="O00UgUgW9ZvaqHGl7WPj" name="PÃ¡gina-1">
    <mxGraphModel dx="2327" dy="746" grid="1" gridSize="10" guides="1" tooltips="1" connect="1" arrows="1" fold="1" page="1" pageScale="1" pageWidth="827" pageHeight="1169" math="0" shadow="0">
      <root>
        <mxCell id="0" />
        <mxCell id="1" parent="0" />
        <mxCell id="gCKJW5BMhNpH_9maVDtV-1" value="&lt;div style=&quot;color: rgb(204, 204, 204); background-color: rgb(31, 31, 31); font-family: Consolas, &amp;quot;Courier New&amp;quot;, monospace; font-size: 14px; line-height: 19px;&quot;&gt;&lt;span style=&quot;color: #4ec9b0;&quot;&gt;&amp;nbsp;GameLoop&amp;nbsp;&lt;/span&gt;&lt;/div&gt;" style="rounded=1;whiteSpace=wrap;html=1;" parent="1" vertex="1">
          <mxGeometry x="-100" y="130" width="120" height="50" as="geometry" />
        </mxCell>
        <mxCell id="gCKJW5BMhNpH_9maVDtV-10" value="" style="endArrow=classic;html=1;rounded=1;entryX=0;entryY=0;entryDx=0;entryDy=25;entryPerimeter=0;exitX=1;exitY=0.5;exitDx=0;exitDy=0;" parent="1" source="gCKJW5BMhNpH_9maVDtV-1" target="gCKJW5BMhNpH_9maVDtV-9" edge="1">
          <mxGeometry width="50" height="50" relative="1" as="geometry">
            <mxPoint x="50" y="155" as="sourcePoint" />
            <mxPoint x="350" y="220" as="targetPoint" />
          </mxGeometry>
        </mxCell>
        <mxCell id="gCKJW5BMhNpH_9maVDtV-11" value="" style="group;rounded=1;" parent="1" vertex="1" connectable="0">
          <mxGeometry x="130" y="130" width="140" height="70" as="geometry" />
        </mxCell>
        <mxCell id="gCKJW5BMhNpH_9maVDtV-4" value="" style="shape=cube;whiteSpace=wrap;html=1;boundedLbl=1;backgroundOutline=1;darkOpacity=0.05;darkOpacity2=0.1;rounded=1;" parent="gCKJW5BMhNpH_9maVDtV-11" vertex="1">
          <mxGeometry x="100" width="40" height="70" as="geometry" />
        </mxCell>
        <mxCell id="gCKJW5BMhNpH_9maVDtV-5" value="" style="shape=cube;whiteSpace=wrap;html=1;boundedLbl=1;backgroundOutline=1;darkOpacity=0.05;darkOpacity2=0.1;rounded=1;" parent="gCKJW5BMhNpH_9maVDtV-11" vertex="1">
          <mxGeometry x="80" width="40" height="70" as="geometry" />
        </mxCell>
        <mxCell id="gCKJW5BMhNpH_9maVDtV-6" value="" style="shape=cube;whiteSpace=wrap;html=1;boundedLbl=1;backgroundOutline=1;darkOpacity=0.05;darkOpacity2=0.1;rounded=1;" parent="gCKJW5BMhNpH_9maVDtV-11" vertex="1">
          <mxGeometry x="60" width="40" height="70" as="geometry" />
        </mxCell>
        <mxCell id="gCKJW5BMhNpH_9maVDtV-7" value="" style="shape=cube;whiteSpace=wrap;html=1;boundedLbl=1;backgroundOutline=1;darkOpacity=0.05;darkOpacity2=0.1;rounded=1;" parent="gCKJW5BMhNpH_9maVDtV-11" vertex="1">
          <mxGeometry x="40" width="40" height="70" as="geometry" />
        </mxCell>
        <mxCell id="gCKJW5BMhNpH_9maVDtV-8" value="" style="shape=cube;whiteSpace=wrap;html=1;boundedLbl=1;backgroundOutline=1;darkOpacity=0.05;darkOpacity2=0.1;rounded=1;" parent="gCKJW5BMhNpH_9maVDtV-11" vertex="1">
          <mxGeometry x="20" width="40" height="70" as="geometry" />
        </mxCell>
        <mxCell id="gCKJW5BMhNpH_9maVDtV-9" value="" style="shape=cube;whiteSpace=wrap;html=1;boundedLbl=1;backgroundOutline=1;darkOpacity=0.05;darkOpacity2=0.1;rounded=1;" parent="gCKJW5BMhNpH_9maVDtV-11" vertex="1">
          <mxGeometry width="40" height="70" as="geometry" />
        </mxCell>
        <mxCell id="gCKJW5BMhNpH_9maVDtV-29" value="&#xa;&lt;div style=&quot;color: rgb(204, 204, 204); background-color: rgb(31, 31, 31); font-family: Consolas, &amp;quot;Courier New&amp;quot;, monospace; font-weight: normal; font-size: 14px; line-height: 19px;&quot;&gt;&lt;div&gt;&lt;span style=&quot;color: #9cdcfe;&quot;&gt;q_msgs&lt;/span&gt;&lt;/div&gt;&lt;/div&gt;&#xa;&#xa;" style="text;whiteSpace=wrap;html=1;fontColor=#FFFFFF;rounded=1;" parent="gCKJW5BMhNpH_9maVDtV-11" vertex="1">
          <mxGeometry x="50" y="10" width="80" height="40" as="geometry" />
        </mxCell>
        <mxCell id="gCKJW5BMhNpH_9maVDtV-21" value="" style="group;rounded=1;" parent="1" vertex="1" connectable="0">
          <mxGeometry x="130" y="190" width="160" height="200" as="geometry" />
        </mxCell>
        <mxCell id="gCKJW5BMhNpH_9maVDtV-22" value="" style="shape=cube;whiteSpace=wrap;html=1;boundedLbl=1;backgroundOutline=1;darkOpacity=0.05;darkOpacity2=0.1;rounded=1;" parent="gCKJW5BMhNpH_9maVDtV-21" vertex="1">
          <mxGeometry x="100" y="20" width="40" height="70" as="geometry" />
        </mxCell>
        <mxCell id="gCKJW5BMhNpH_9maVDtV-23" value="" style="shape=cube;whiteSpace=wrap;html=1;boundedLbl=1;backgroundOutline=1;darkOpacity=0.05;darkOpacity2=0.1;rounded=1;" parent="gCKJW5BMhNpH_9maVDtV-21" vertex="1">
          <mxGeometry x="80" y="20" width="40" height="70" as="geometry" />
        </mxCell>
        <mxCell id="gCKJW5BMhNpH_9maVDtV-24" value="" style="shape=cube;whiteSpace=wrap;html=1;boundedLbl=1;backgroundOutline=1;darkOpacity=0.05;darkOpacity2=0.1;rounded=1;" parent="gCKJW5BMhNpH_9maVDtV-21" vertex="1">
          <mxGeometry x="60" y="20" width="40" height="70" as="geometry" />
        </mxCell>
        <mxCell id="gCKJW5BMhNpH_9maVDtV-25" value="" style="shape=cube;whiteSpace=wrap;html=1;boundedLbl=1;backgroundOutline=1;darkOpacity=0.05;darkOpacity2=0.1;rounded=1;" parent="gCKJW5BMhNpH_9maVDtV-21" vertex="1">
          <mxGeometry x="40" y="20" width="40" height="70" as="geometry" />
        </mxCell>
        <mxCell id="gCKJW5BMhNpH_9maVDtV-26" value="" style="shape=cube;whiteSpace=wrap;html=1;boundedLbl=1;backgroundOutline=1;darkOpacity=0.05;darkOpacity2=0.1;rounded=1;" parent="gCKJW5BMhNpH_9maVDtV-21" vertex="1">
          <mxGeometry x="20" y="20" width="40" height="70" as="geometry" />
        </mxCell>
        <mxCell id="gCKJW5BMhNpH_9maVDtV-27" value="" style="shape=cube;whiteSpace=wrap;html=1;boundedLbl=1;backgroundOutline=1;darkOpacity=0.05;darkOpacity2=0.1;rounded=1;" parent="gCKJW5BMhNpH_9maVDtV-21" vertex="1">
          <mxGeometry y="20" width="40" height="70" as="geometry" />
        </mxCell>
        <mxCell id="gCKJW5BMhNpH_9maVDtV-30" value="&#xa;&lt;div style=&quot;color: rgb(204, 204, 204); background-color: rgb(31, 31, 31); font-family: Consolas, &amp;quot;Courier New&amp;quot;, monospace; font-weight: normal; font-size: 14px; line-height: 19px;&quot;&gt;&lt;div&gt;&lt;span style=&quot;color: #9cdcfe;&quot;&gt;q_msgs&lt;/span&gt;&lt;/div&gt;&lt;/div&gt;&#xa;&#xa;" style="text;whiteSpace=wrap;html=1;fontColor=#FFFFFF;rounded=1;" parent="gCKJW5BMhNpH_9maVDtV-21" vertex="1">
          <mxGeometry x="50" y="35" width="80" height="40" as="geometry" />
        </mxCell>
        <mxCell id="gCKJW5BMhNpH_9maVDtV-35" value="" style="group" parent="gCKJW5BMhNpH_9maVDtV-21" vertex="1" connectable="0">
          <mxGeometry x="50" y="60" width="110" height="140" as="geometry" />
        </mxCell>
        <mxCell id="gCKJW5BMhNpH_9maVDtV-32" value="" style="shape=waypoint;sketch=0;fillStyle=solid;size=6;pointerEvents=1;points=[];fillColor=none;resizable=0;rotatable=0;perimeter=centerPerimeter;snapToPoint=1;" parent="gCKJW5BMhNpH_9maVDtV-35" vertex="1">
          <mxGeometry y="20" width="40" height="40" as="geometry" />
        </mxCell>
        <mxCell id="gCKJW5BMhNpH_9maVDtV-33" value="" style="shape=waypoint;sketch=0;fillStyle=solid;size=6;pointerEvents=1;points=[];fillColor=none;resizable=0;rotatable=0;perimeter=centerPerimeter;snapToPoint=1;" parent="gCKJW5BMhNpH_9maVDtV-35" vertex="1">
          <mxGeometry y="40" width="40" height="40" as="geometry" />
        </mxCell>
        <mxCell id="gCKJW5BMhNpH_9maVDtV-34" value="" style="shape=waypoint;sketch=0;fillStyle=solid;size=6;pointerEvents=1;points=[];fillColor=none;resizable=0;rotatable=0;perimeter=centerPerimeter;snapToPoint=1;" parent="gCKJW5BMhNpH_9maVDtV-35" vertex="1">
          <mxGeometry y="60" width="40" height="40" as="geometry" />
        </mxCell>
        <mxCell id="gCKJW5BMhNpH_9maVDtV-37" value="" style="rounded=1;whiteSpace=wrap;html=1;fillColor=none;dashed=1;" parent="gCKJW5BMhNpH_9maVDtV-35" vertex="1">
          <mxGeometry x="-70" y="-140" width="180" height="240" as="geometry" />
        </mxCell>
        <mxCell id="gCKJW5BMhNpH_9maVDtV-28" value="" style="endArrow=classic;html=1;rounded=1;fontColor=#FFFFFF;entryX=0.006;entryY=0.425;entryDx=0;entryDy=0;entryPerimeter=0;exitX=1;exitY=0.5;exitDx=0;exitDy=0;" parent="1" source="gCKJW5BMhNpH_9maVDtV-1" target="gCKJW5BMhNpH_9maVDtV-27" edge="1">
          <mxGeometry width="50" height="50" relative="1" as="geometry">
            <mxPoint x="60" y="160" as="sourcePoint" />
            <mxPoint x="30" y="240" as="targetPoint" />
            <Array as="points">
              <mxPoint x="100" y="155" />
              <mxPoint x="100" y="240" />
            </Array>
          </mxGeometry>
        </mxCell>
        <mxCell id="gCKJW5BMhNpH_9maVDtV-38" value="&lt;div style=&quot;color: rgb(204, 204, 204); background-color: rgb(31, 31, 31); font-family: Consolas, &amp;quot;Courier New&amp;quot;, monospace; font-size: 14px; line-height: 19px;&quot;&gt;&lt;span style=&quot;color: #dcdcaa;&quot;&gt;&amp;nbsp;try_push&amp;nbsp;&lt;/span&gt;&lt;/div&gt;" style="text;html=1;align=center;verticalAlign=middle;resizable=0;points=[];autosize=1;strokeColor=none;fillColor=none;" parent="1" vertex="1">
          <mxGeometry x="15" y="130" width="100" height="30" as="geometry" />
        </mxCell>
        <mxCell id="gCKJW5BMhNpH_9maVDtV-39" value="&lt;div style=&quot;color: rgb(204, 204, 204); background-color: rgb(31, 31, 31); font-family: Consolas, &amp;quot;Courier New&amp;quot;, monospace; font-size: 14px; line-height: 19px;&quot;&gt;&lt;span style=&quot;color: #4ec9b0;&quot;&gt;&amp;nbsp;ServerSender&amp;nbsp;&lt;/span&gt;&lt;/div&gt;" style="rounded=1;whiteSpace=wrap;html=1;" parent="1" vertex="1">
          <mxGeometry x="354" y="150" width="120" height="50" as="geometry" />
        </mxCell>
        <mxCell id="gCKJW5BMhNpH_9maVDtV-41" value="" style="endArrow=classic;html=1;rounded=0;entryX=0;entryY=0.5;entryDx=0;entryDy=0;exitX=0;exitY=0;exitDx=40;exitDy=45;exitPerimeter=0;" parent="1" source="gCKJW5BMhNpH_9maVDtV-4" target="gCKJW5BMhNpH_9maVDtV-39" edge="1">
          <mxGeometry width="50" height="50" relative="1" as="geometry">
            <mxPoint x="320" y="190" as="sourcePoint" />
            <mxPoint x="300" y="170" as="targetPoint" />
          </mxGeometry>
        </mxCell>
        <mxCell id="gCKJW5BMhNpH_9maVDtV-42" value="&lt;div style=&quot;color: rgb(204, 204, 204); background-color: rgb(31, 31, 31); font-family: Consolas, &amp;quot;Courier New&amp;quot;, monospace; font-size: 14px; line-height: 19px;&quot;&gt;&lt;span style=&quot;color: #4ec9b0;&quot;&gt;&amp;nbsp;ServerSender&amp;nbsp;&lt;/span&gt;&lt;/div&gt;" style="rounded=1;whiteSpace=wrap;html=1;" parent="1" vertex="1">
          <mxGeometry x="354" y="230" width="120" height="50" as="geometry" />
        </mxCell>
        <mxCell id="gCKJW5BMhNpH_9maVDtV-43" value="" style="endArrow=classic;html=1;rounded=0;entryX=0;entryY=0.5;entryDx=0;entryDy=0;exitX=0;exitY=0;exitDx=40;exitDy=45;exitPerimeter=0;" parent="1" target="gCKJW5BMhNpH_9maVDtV-42" edge="1">
          <mxGeometry width="50" height="50" relative="1" as="geometry">
            <mxPoint x="270" y="255" as="sourcePoint" />
            <mxPoint x="300" y="250" as="targetPoint" />
          </mxGeometry>
        </mxCell>
        <mxCell id="gCKJW5BMhNpH_9maVDtV-44" value="&lt;div style=&quot;color: rgb(204, 204, 204); background-color: rgb(31, 31, 31); font-family: Consolas, &amp;quot;Courier New&amp;quot;, monospace; font-size: 14px; line-height: 19px;&quot;&gt;&lt;span style=&quot;color: #dcdcaa;&quot;&gt;&amp;nbsp;pop&amp;nbsp;&lt;/span&gt;&lt;/div&gt;" style="text;html=1;align=center;verticalAlign=middle;resizable=0;points=[];autosize=1;strokeColor=none;fillColor=none;" parent="1" vertex="1">
          <mxGeometry x="285" y="150" width="60" height="30" as="geometry" />
        </mxCell>
        <mxCell id="gCKJW5BMhNpH_9maVDtV-45" value="&lt;div style=&quot;color: rgb(204, 204, 204); background-color: rgb(31, 31, 31); font-family: Consolas, &amp;quot;Courier New&amp;quot;, monospace; font-size: 14px; line-height: 19px;&quot;&gt;&lt;span style=&quot;color: #dcdcaa;&quot;&gt;&amp;nbsp;pop&amp;nbsp;&lt;/span&gt;&lt;/div&gt;" style="text;html=1;align=center;verticalAlign=middle;resizable=0;points=[];autosize=1;strokeColor=none;fillColor=none;" parent="1" vertex="1">
          <mxGeometry x="285" y="230" width="60" height="30" as="geometry" />
        </mxCell>
        <mxCell id="gCKJW5BMhNpH_9maVDtV-46" value="&lt;div style=&quot;color: rgb(204, 204, 204); background-color: rgb(31, 31, 31); font-family: Consolas, &amp;quot;Courier New&amp;quot;, monospace; font-weight: normal; font-size: 14px; line-height: 19px;&quot;&gt;&lt;div&gt;&lt;span style=&quot;color: #9cdcfe;&quot;&gt;list_of_q_msgs&lt;/span&gt;&lt;/div&gt;&lt;/div&gt;" style="text;whiteSpace=wrap;html=1;" parent="1" vertex="1">
          <mxGeometry x="140" y="80" width="140" height="40" as="geometry" />
        </mxCell>
        <mxCell id="gCKJW5BMhNpH_9maVDtV-47" value="&lt;div style=&quot;color: rgb(204, 204, 204); background-color: rgb(31, 31, 31); font-family: Consolas, &amp;quot;Courier New&amp;quot;, monospace; font-size: 14px; line-height: 19px;&quot;&gt;&lt;div style=&quot;line-height: 19px;&quot;&gt;&lt;span style=&quot;color: #4ec9b0;&quot;&gt;&amp;nbsp;ServerReceiver&amp;nbsp;&lt;/span&gt;&lt;/div&gt;&lt;/div&gt;" style="rounded=1;whiteSpace=wrap;html=1;" parent="1" vertex="1">
          <mxGeometry x="-100" y="380" width="130" height="50" as="geometry" />
        </mxCell>
        <mxCell id="gCKJW5BMhNpH_9maVDtV-48" value="" style="endArrow=classic;html=1;rounded=1;entryX=0;entryY=0;entryDx=0;entryDy=25;entryPerimeter=0;exitX=1;exitY=0.5;exitDx=0;exitDy=0;" parent="1" source="gCKJW5BMhNpH_9maVDtV-47" target="gCKJW5BMhNpH_9maVDtV-55" edge="1">
          <mxGeometry width="50" height="50" relative="1" as="geometry">
            <mxPoint x="50" y="405" as="sourcePoint" />
            <mxPoint x="350" y="470" as="targetPoint" />
          </mxGeometry>
        </mxCell>
        <mxCell id="gCKJW5BMhNpH_9maVDtV-49" value="" style="group;rounded=1;" parent="1" vertex="1" connectable="0">
          <mxGeometry x="150" y="380" width="140" height="70" as="geometry" />
        </mxCell>
        <mxCell id="gCKJW5BMhNpH_9maVDtV-50" value="" style="shape=cube;whiteSpace=wrap;html=1;boundedLbl=1;backgroundOutline=1;darkOpacity=0.05;darkOpacity2=0.1;rounded=1;" parent="gCKJW5BMhNpH_9maVDtV-49" vertex="1">
          <mxGeometry x="100" width="40" height="70" as="geometry" />
        </mxCell>
        <mxCell id="gCKJW5BMhNpH_9maVDtV-51" value="" style="shape=cube;whiteSpace=wrap;html=1;boundedLbl=1;backgroundOutline=1;darkOpacity=0.05;darkOpacity2=0.1;rounded=1;" parent="gCKJW5BMhNpH_9maVDtV-49" vertex="1">
          <mxGeometry x="80" width="40" height="70" as="geometry" />
        </mxCell>
        <mxCell id="gCKJW5BMhNpH_9maVDtV-52" value="" style="shape=cube;whiteSpace=wrap;html=1;boundedLbl=1;backgroundOutline=1;darkOpacity=0.05;darkOpacity2=0.1;rounded=1;" parent="gCKJW5BMhNpH_9maVDtV-49" vertex="1">
          <mxGeometry x="60" width="40" height="70" as="geometry" />
        </mxCell>
        <mxCell id="gCKJW5BMhNpH_9maVDtV-53" value="" style="shape=cube;whiteSpace=wrap;html=1;boundedLbl=1;backgroundOutline=1;darkOpacity=0.05;darkOpacity2=0.1;rounded=1;" parent="gCKJW5BMhNpH_9maVDtV-49" vertex="1">
          <mxGeometry x="40" width="40" height="70" as="geometry" />
        </mxCell>
        <mxCell id="gCKJW5BMhNpH_9maVDtV-54" value="" style="shape=cube;whiteSpace=wrap;html=1;boundedLbl=1;backgroundOutline=1;darkOpacity=0.05;darkOpacity2=0.1;rounded=1;" parent="gCKJW5BMhNpH_9maVDtV-49" vertex="1">
          <mxGeometry x="20" width="40" height="70" as="geometry" />
        </mxCell>
        <mxCell id="gCKJW5BMhNpH_9maVDtV-55" value="" style="shape=cube;whiteSpace=wrap;html=1;boundedLbl=1;backgroundOutline=1;darkOpacity=0.05;darkOpacity2=0.1;rounded=1;" parent="gCKJW5BMhNpH_9maVDtV-49" vertex="1">
          <mxGeometry width="40" height="70" as="geometry" />
        </mxCell>
        <mxCell id="gCKJW5BMhNpH_9maVDtV-56" value="&lt;div style=&quot;color: rgb(204, 204, 204); background-color: rgb(31, 31, 31); font-family: Consolas, &amp;quot;Courier New&amp;quot;, monospace; font-size: 14px; line-height: 19px;&quot;&gt;&lt;span style=&quot;color: #9cdcfe;&quot;&gt;&amp;nbsp;client_cmds_q&amp;nbsp;&lt;/span&gt;&lt;/div&gt;" style="text;whiteSpace=wrap;html=1;fontColor=#FFFFFF;rounded=1;" parent="gCKJW5BMhNpH_9maVDtV-49" vertex="1">
          <mxGeometry x="20" y="30" width="80" height="40" as="geometry" />
        </mxCell>
        <mxCell id="gCKJW5BMhNpH_9maVDtV-71" value="&lt;div style=&quot;color: rgb(204, 204, 204); background-color: rgb(31, 31, 31); font-family: Consolas, &amp;quot;Courier New&amp;quot;, monospace; font-size: 14px; line-height: 19px;&quot;&gt;&lt;span style=&quot;color: #dcdcaa;&quot;&gt;&amp;nbsp;push&amp;nbsp;&lt;/span&gt;&lt;/div&gt;" style="text;html=1;align=center;verticalAlign=middle;resizable=0;points=[];autosize=1;strokeColor=none;fillColor=none;" parent="1" vertex="1">
          <mxGeometry x="40" y="380" width="70" height="30" as="geometry" />
        </mxCell>
        <mxCell id="gCKJW5BMhNpH_9maVDtV-72" value="&lt;div style=&quot;color: rgb(204, 204, 204); background-color: rgb(31, 31, 31); font-family: Consolas, &amp;quot;Courier New&amp;quot;, monospace; font-size: 14px; line-height: 19px;&quot;&gt;&lt;div style=&quot;line-height: 19px;&quot;&gt;&lt;span style=&quot;color: #4ec9b0;&quot;&gt;&amp;nbsp;GameLoop&amp;nbsp;&lt;/span&gt;&lt;/div&gt;&lt;/div&gt;" style="rounded=1;whiteSpace=wrap;html=1;" parent="1" vertex="1">
          <mxGeometry x="388" y="400" width="86" height="50" as="geometry" />
        </mxCell>
        <mxCell id="gCKJW5BMhNpH_9maVDtV-73" value="" style="endArrow=classic;html=1;rounded=0;entryX=0;entryY=0.5;entryDx=0;entryDy=0;exitX=0;exitY=0;exitDx=40;exitDy=45;exitPerimeter=0;" parent="1" source="gCKJW5BMhNpH_9maVDtV-50" target="gCKJW5BMhNpH_9maVDtV-72" edge="1">
          <mxGeometry width="50" height="50" relative="1" as="geometry">
            <mxPoint x="320" y="440" as="sourcePoint" />
            <mxPoint x="300" y="420" as="targetPoint" />
          </mxGeometry>
        </mxCell>
        <mxCell id="gCKJW5BMhNpH_9maVDtV-76" value="&lt;div style=&quot;color: rgb(204, 204, 204); background-color: rgb(31, 31, 31); font-family: Consolas, &amp;quot;Courier New&amp;quot;, monospace; font-size: 14px; line-height: 19px;&quot;&gt;&lt;div style=&quot;line-height: 19px;&quot;&gt;&lt;span style=&quot;color: #dcdcaa;&quot;&gt;&amp;nbsp;try_pop&amp;nbsp;&lt;/span&gt;&lt;/div&gt;&lt;/div&gt;" style="text;html=1;align=center;verticalAlign=middle;resizable=0;points=[];autosize=1;strokeColor=none;fillColor=none;" parent="1" vertex="1">
          <mxGeometry x="290" y="400" width="90" height="30" as="geometry" />
        </mxCell>
        <mxCell id="gCKJW5BMhNpH_9maVDtV-79" value="&lt;div style=&quot;color: rgb(204, 204, 204); background-color: rgb(31, 31, 31); font-family: Consolas, &amp;quot;Courier New&amp;quot;, monospace; font-size: 14px; line-height: 19px;&quot;&gt;&lt;div style=&quot;line-height: 19px;&quot;&gt;&lt;span style=&quot;color: #4ec9b0;&quot;&gt;&amp;nbsp;ServerReceiver&amp;nbsp;&lt;/span&gt;&lt;/div&gt;&lt;/div&gt;" style="rounded=1;whiteSpace=wrap;html=1;" parent="1" vertex="1">
          <mxGeometry x="-100" y="450" width="130" height="50" as="geometry" />
        </mxCell>
        <mxCell id="gCKJW5BMhNpH_9maVDtV-96" value="" style="endArrow=classic;html=1;rounded=1;exitX=1.013;exitY=0.584;exitDx=0;exitDy=0;entryX=0;entryY=0;entryDx=0;entryDy=25;entryPerimeter=0;exitPerimeter=0;" parent="1" source="gCKJW5BMhNpH_9maVDtV-79" target="gCKJW5BMhNpH_9maVDtV-55" edge="1">
          <mxGeometry width="50" height="50" relative="1" as="geometry">
            <mxPoint x="30" y="465" as="sourcePoint" />
            <mxPoint x="130" y="410" as="targetPoint" />
            <Array as="points">
              <mxPoint x="120" y="479" />
              <mxPoint x="120" y="405" />
            </Array>
          </mxGeometry>
        </mxCell>
        <mxCell id="gCKJW5BMhNpH_9maVDtV-97" value="&lt;div style=&quot;color: rgb(204, 204, 204); background-color: rgb(31, 31, 31); font-family: Consolas, &amp;quot;Courier New&amp;quot;, monospace; font-size: 14px; line-height: 19px;&quot;&gt;&lt;span style=&quot;color: #dcdcaa;&quot;&gt;&amp;nbsp;push&amp;nbsp;&lt;/span&gt;&lt;/div&gt;" style="text;html=1;align=center;verticalAlign=middle;resizable=0;points=[];autosize=1;strokeColor=none;fillColor=none;" parent="1" vertex="1">
          <mxGeometry x="40" y="450" width="70" height="30" as="geometry" />
        </mxCell>
        <mxCell id="gCKJW5BMhNpH_9maVDtV-98" value="" style="group" parent="1" vertex="1" connectable="0">
          <mxGeometry x="-60" y="490" width="40" height="80" as="geometry" />
        </mxCell>
        <mxCell id="gCKJW5BMhNpH_9maVDtV-93" value="" style="shape=waypoint;sketch=0;fillStyle=solid;size=6;pointerEvents=1;points=[];fillColor=none;resizable=0;rotatable=0;perimeter=centerPerimeter;snapToPoint=1;" parent="gCKJW5BMhNpH_9maVDtV-98" vertex="1">
          <mxGeometry width="40" height="40" as="geometry" />
        </mxCell>
        <mxCell id="gCKJW5BMhNpH_9maVDtV-94" value="" style="shape=waypoint;sketch=0;fillStyle=solid;size=6;pointerEvents=1;points=[];fillColor=none;resizable=0;rotatable=0;perimeter=centerPerimeter;snapToPoint=1;" parent="gCKJW5BMhNpH_9maVDtV-98" vertex="1">
          <mxGeometry y="20" width="40" height="40" as="geometry" />
        </mxCell>
        <mxCell id="gCKJW5BMhNpH_9maVDtV-95" value="" style="shape=waypoint;sketch=0;fillStyle=solid;size=6;pointerEvents=1;points=[];fillColor=none;resizable=0;rotatable=0;perimeter=centerPerimeter;snapToPoint=1;" parent="gCKJW5BMhNpH_9maVDtV-98" vertex="1">
          <mxGeometry y="40" width="40" height="40" as="geometry" />
        </mxCell>
        <mxCell id="gCKJW5BMhNpH_9maVDtV-99" value="" style="group" parent="1" vertex="1" connectable="0">
          <mxGeometry x="394" y="270" width="40" height="80" as="geometry" />
        </mxCell>
        <mxCell id="gCKJW5BMhNpH_9maVDtV-89" value="" style="shape=waypoint;sketch=0;fillStyle=solid;size=6;pointerEvents=1;points=[];fillColor=none;resizable=0;rotatable=0;perimeter=centerPerimeter;snapToPoint=1;" parent="gCKJW5BMhNpH_9maVDtV-99" vertex="1">
          <mxGeometry width="40" height="40" as="geometry" />
        </mxCell>
        <mxCell id="gCKJW5BMhNpH_9maVDtV-90" value="" style="shape=waypoint;sketch=0;fillStyle=solid;size=6;pointerEvents=1;points=[];fillColor=none;resizable=0;rotatable=0;perimeter=centerPerimeter;snapToPoint=1;" parent="gCKJW5BMhNpH_9maVDtV-99" vertex="1">
          <mxGeometry y="20" width="40" height="40" as="geometry" />
        </mxCell>
        <mxCell id="gCKJW5BMhNpH_9maVDtV-91" value="" style="shape=waypoint;sketch=0;fillStyle=solid;size=6;pointerEvents=1;points=[];fillColor=none;resizable=0;rotatable=0;perimeter=centerPerimeter;snapToPoint=1;" parent="gCKJW5BMhNpH_9maVDtV-99" vertex="1">
          <mxGeometry y="40" width="40" height="40" as="geometry" />
        </mxCell>
      </root>
    </mxGraphModel>
  </diagram>
</mxfile>
